<svg width="32" height="32" viewBox="0 0 32 32" fill="none" xmlns="http://www.w3.org/2000/svg">
<path d="M2.888 19.45V13.15H4.386V19.45H2.888ZM0.41 17V15.6H6.864V17H0.41Z" fill="white"/>
<path d="M16.4 27.7001C17.4769 27.7001 18.35 26.7891 18.35 25.6653C18.35 24.5415 17.4769 23.6305 16.4 23.6305C15.323 23.6305 14.45 24.5415 14.45 25.6653C14.45 26.7891 15.323 27.7001 16.4 27.7001Z" fill="white"/>
<path d="M27.1261 27.7002C28.2031 27.7002 29.0761 26.7892 29.0761 25.6654C29.0761 24.5416 28.2031 23.6306 27.1261 23.6306C26.0492 23.6306 25.1761 24.5416 25.1761 25.6654C25.1761 26.7892 26.0492 27.7002 27.1261 27.7002Z" fill="white"/>
<path d="M31.8164 6.48431C31.7453 6.39464 31.6557 6.3222 31.5539 6.27219C31.4522 6.22219 31.3409 6.19585 31.228 6.19509H15.3169L15.8137 7.75846H30.2269L28.1864 17.1387H16.7231L13.2306 5.8277C13.1928 5.70768 13.1272 5.59878 13.0394 5.51031C12.9516 5.42184 12.8441 5.35641 12.7262 5.3196L9.59293 4.33468C9.49659 4.3044 9.39535 4.29382 9.29501 4.30356C9.19467 4.31329 9.09719 4.34315 9.00813 4.39142C8.82826 4.4889 8.69363 4.65548 8.63383 4.8545C8.57404 5.05352 8.59399 5.26869 8.6893 5.45267C8.78461 5.63664 8.94746 5.77436 9.14204 5.83551L11.8856 6.69537L15.3934 18.0298L14.14 19.0773L14.0407 19.1789C13.7307 19.5443 13.5549 20.0089 13.5438 20.4926C13.5326 20.9763 13.6867 21.4488 13.9795 21.8288C14.1878 22.0879 14.4525 22.2935 14.7524 22.4293C15.0523 22.565 15.3791 22.627 15.7067 22.6105H28.4615C28.6642 22.6105 28.8586 22.5281 29.0019 22.3815C29.1452 22.2349 29.2257 22.0361 29.2257 21.8288C29.2257 21.6215 29.1452 21.4226 29.0019 21.276C28.8586 21.1295 28.6642 21.0471 28.4615 21.0471H15.5844C15.4964 21.044 15.4107 21.0178 15.3355 20.9709C15.2603 20.9241 15.1982 20.8582 15.1551 20.7796C15.1121 20.701 15.0896 20.6124 15.0899 20.5223C15.0901 20.4323 15.113 20.3438 15.1564 20.2654L16.9982 18.702H28.7978C28.9744 18.7065 29.1471 18.6481 29.2865 18.537C29.4258 18.4258 29.5232 18.2687 29.562 18.0923L31.9846 7.14875C32.0078 7.03221 32.0047 6.91179 31.9756 6.79665C31.9465 6.6815 31.892 6.57468 31.8164 6.48431Z" fill="white"/>
</svg>
